<?xml version="1.0" encoding="iso-8859-1"?>
<!-- Generator: Adobe Illustrator 16.0.0, SVG Export Plug-In . SVG Version: 6.00 Build 0)  -->
<!DOCTYPE svg PUBLIC "-//W3C//DTD SVG 1.1//EN" "http://www.w3.org/Graphics/SVG/1.1/DTD/svg11.dtd">
<svg xmlns="http://www.w3.org/2000/svg" xmlns:xlink="http://www.w3.org/1999/xlink" version="1.1" id="Capa_1" x="0px" y="0px" width="512px" height="512px" viewBox="0 0 599.785 599.785" style="enable-background:new 0 0 599.785 599.785;" xml:space="preserve">
<g>
	<g>
		<path d="M195.112,246.498c12.367-12.367,19.179-28.812,19.179-46.302s-6.811-33.934-19.179-46.302    c-12.368-12.368-28.812-19.179-46.302-19.179s-33.934,6.811-46.302,19.179c-12.368,12.368-19.179,28.812-19.179,46.302    s6.811,33.934,19.179,46.302c7.132,7.132,15.62,12.412,24.882,15.607v38.415c0,27.164,8.457,47.715,25.854,62.828    c14.286,12.41,32.301,18.947,49.723,25.27c32.486,11.789,60.619,22.002,72.446,65.867v10.391c-1.825,0.598-3.632,1.27-5.416,2.023    c-8.21,3.473-15.575,8.436-21.89,14.75c-6.315,6.314-11.277,13.68-14.75,21.891c-3.605,8.523-5.433,17.553-5.433,26.836    s1.828,18.312,5.433,26.836c3.472,8.211,8.436,15.576,14.75,21.891c6.314,6.314,13.679,11.277,21.891,14.75    c8.522,3.605,17.551,5.434,26.835,5.434s18.312-1.828,26.835-5.434c8.211-3.473,15.576-8.436,21.891-14.75    s11.277-13.68,14.75-21.891c3.605-8.523,5.434-17.551,5.434-26.836c0-9.283-1.828-18.312-5.434-26.836    c-3.473-8.211-8.436-15.574-14.75-21.889s-13.68-11.277-21.891-14.752c-1.783-0.754-3.59-1.426-5.414-2.023V451.75v-7.172    c0.213-10.621,1.449-32.861,7.596-55.574c4.65-17.188,11.143-31.209,19.299-41.678c9.23-11.848,20.387-18.924,34.105-21.629    c23.285-4.592,41.551-11.037,55.844-19.707c14.854-9.008,25.541-20.382,32.672-34.772c9.889-19.959,11.359-42.872,11.027-68.747    c21.389-3.896,37.658-22.65,37.658-45.144V128.79c0-25.31-20.592-45.9-45.9-45.9h-28.539c-25.309,0-45.898,20.59-45.898,45.9    v28.538c0,23.256,17.389,42.515,39.846,45.488c0.283,20.705-0.666,37.446-6.58,49.381c-5.102,10.294-16.352,23.173-58.416,31.47    c-16.391,3.232-35.688,11.198-52.715,29.222V127.346h0.891c20.869,0,39.512-12.457,47.498-31.736s3.611-41.271-11.145-56.027    l-24.025-24.025C321.765,5.848,308.854,0.5,295.12,0.5c-13.734,0-26.645,5.349-36.354,15.06l-24.022,24.022    c-14.756,14.756-19.13,36.748-11.145,56.027c7.986,19.279,26.629,31.736,47.498,31.736h4.319v250.168    c-18.762-14.982-39.977-22.688-57.832-29.166c-33.683-12.223-47.351-18.357-47.351-47.828v-38.415    C179.492,258.909,187.98,253.629,195.112,246.498z M438.958,136.646v-7.857c0-1.69,1.369-3.06,3.061-3.06h28.537    c1.689,0,3.061,1.37,3.061,3.06v7.971v20.567c0,1.689-1.371,3.06-3.061,3.06h-28.537c-1.691,0-3.061-1.371-3.061-3.06V136.646z     M265.034,69.875l24.025-24.025c1.673-1.674,3.867-2.51,6.06-2.51s4.387,0.836,6.06,2.51l24.025,24.025    c5.398,5.399,1.574,14.631-6.061,14.631h-0.891h-42.84h-4.319C263.459,84.506,259.635,75.275,265.034,69.875z M296.834,556.443    c-14.397,0-26.069-11.672-26.069-26.068c0-5.521,1.721-10.637,4.649-14.852c4.708-6.777,12.543-11.217,21.42-11.217    c8.876,0,16.712,4.439,21.421,11.217c2.928,4.215,4.648,9.33,4.648,14.852C322.903,544.771,311.231,556.443,296.834,556.443z     M148.811,177.555c12.504,0,22.641,10.137,22.641,22.641c0,2.567-0.433,5.032-1.221,7.332    c-3.047,8.904-11.483,15.308-21.42,15.308s-18.373-6.404-21.42-15.308c-0.788-2.301-1.221-4.765-1.221-7.332    C126.17,187.692,136.306,177.555,148.811,177.555z" fill="#098b94"/>
		<path d="M296.834,599.785c-9.352,0-18.446-1.842-27.03-5.473c-8.27-3.498-15.688-8.496-22.049-14.857    c-6.362-6.361-11.36-13.779-14.857-22.05c-3.631-8.585-5.472-17.679-5.472-27.03c0-9.353,1.841-18.447,5.472-27.03    c3.499-8.271,8.498-15.69,14.857-22.05c6.36-6.36,13.779-11.359,22.048-14.857c1.646-0.695,3.364-1.342,5.111-1.924v-9.963    c-11.77-43.563-39.736-53.713-72.116-65.464c-17.466-6.338-35.525-12.891-49.881-25.361    c-17.513-15.215-26.026-35.889-26.026-63.206v-38.06c-9.332-3.275-17.653-8.525-24.736-15.609    c-12.462-12.462-19.325-29.031-19.325-46.655s6.863-34.193,19.325-46.656c12.462-12.462,29.032-19.325,46.656-19.325    s34.193,6.863,46.656,19.325c12.462,12.462,19.325,29.032,19.325,46.656s-6.863,34.193-19.325,46.655    c-7.083,7.083-15.403,12.333-24.734,15.609v38.059c0,29.134,13.574,35.221,47.021,47.358c17.184,6.234,38.51,13.973,57.162,28.603    V127.846h-3.819c-21.07,0-39.896-12.578-47.959-32.045c-8.063-19.467-3.646-41.672,11.253-56.572l24.022-24.022    C268.217,5.4,281.253,0,295.12,0c13.868,0,26.904,5.399,36.706,15.204l24.025,24.025c14.9,14.899,19.317,37.105,11.253,56.572    c-8.063,19.466-26.89,32.045-47.96,32.045h-0.391v183.795c14.414-14.912,31.942-24.487,52.118-28.466    c41.851-8.254,53.015-21.01,58.064-31.201c5.776-11.655,6.802-27.913,6.534-48.722c-22.75-3.228-39.852-22.895-39.852-45.925    V128.79c0-25.585,20.814-46.4,46.398-46.4h28.539c25.585,0,46.4,20.815,46.4,46.4v28.538c0,22.284-15.81,41.376-37.653,45.558    c0.327,27.081-1.455,49.119-11.084,68.555c-7.174,14.477-17.923,25.918-32.86,34.978c-14.343,8.699-32.662,15.166-56.007,19.77    c-13.595,2.681-24.653,9.696-33.808,21.446c-8.114,10.414-14.578,24.377-19.211,41.501c-6.076,22.455-7.356,44.382-7.578,55.453    v19.926c1.746,0.582,3.463,1.229,5.108,1.924c8.271,3.501,15.69,8.5,22.05,14.859c6.361,6.361,11.36,13.779,14.857,22.048    c3.631,8.585,5.473,17.68,5.473,27.03s-1.842,18.445-5.473,27.03c-3.498,8.271-8.497,15.689-14.857,22.05    s-13.779,11.359-22.05,14.857C315.278,597.943,306.185,599.785,296.834,599.785z M148.81,135.215    c-17.357,0-33.675,6.759-45.949,19.032c-12.273,12.273-19.032,28.592-19.032,45.949s6.759,33.675,19.032,45.948    c7.061,7.061,15.368,12.271,24.692,15.488l0.337,0.116v38.771c0,27.01,8.401,47.438,25.683,62.45    c14.215,12.35,32.186,18.871,49.564,25.177c32.659,11.853,60.864,22.088,72.759,66.208l0.017,0.13v10.753l-0.344,0.113    c-1.839,0.602-3.648,1.277-5.377,2.009c-8.15,3.447-15.462,8.373-21.731,14.643c-6.269,6.268-11.195,13.58-14.644,21.731    c-3.579,8.46-5.393,17.424-5.393,26.642c0,9.217,1.814,18.18,5.393,26.642c3.447,8.15,8.374,15.462,14.644,21.731    c6.27,6.27,13.581,11.196,21.732,14.643c8.46,3.58,17.424,5.395,26.641,5.395c9.216,0,18.179-1.814,26.641-5.394    c8.15-3.448,15.463-8.375,21.731-14.644s11.195-13.581,14.643-21.731c3.58-8.462,5.395-17.426,5.395-26.642    s-1.814-18.18-5.395-26.642c-3.446-8.148-8.373-15.46-14.643-21.729c-6.268-6.268-13.58-11.195-21.732-14.646    c-1.728-0.729-3.536-1.406-5.374-2.008l-0.345-0.113v-20.659c0.223-11.128,1.509-33.146,7.613-55.705    c4.668-17.252,11.19-31.334,19.387-41.854c9.309-11.948,20.562-19.083,34.403-21.812c23.228-4.581,41.44-11.006,55.681-19.645    c14.771-8.958,25.396-20.264,32.483-34.566c9.591-19.356,11.324-41.39,10.976-68.518l-0.005-0.422l0.415-0.076    c21.583-3.932,37.248-22.71,37.248-44.652V128.79c0-25.034-20.366-45.4-45.4-45.4h-28.539c-25.033,0-45.398,20.366-45.398,45.4    v28.538c0,22.675,16.943,42.018,39.411,44.993l0.429,0.057l0.006,0.432c0.289,21.16-0.728,37.694-6.632,49.61    c-5.152,10.396-16.488,23.399-58.768,31.738c-20.372,4.018-38.018,13.8-52.448,29.075l-0.863,0.914v-187.3h1.391    c20.665,0,39.128-12.336,47.036-31.428s3.576-40.87-11.036-55.482l-24.025-24.025C321.505,6.295,308.721,1,295.12,1    c-13.599,0-26.385,5.296-36.001,14.914l-24.022,24.022c-14.612,14.612-18.944,36.39-11.036,55.482    c7.909,19.092,26.371,31.428,47.036,31.428h4.819v251.707l-0.812-0.648c-18.714-14.944-40.326-22.786-57.69-29.087    c-33.917-12.308-47.681-18.49-47.681-48.298v-38.771l0.337-0.116c9.324-3.217,17.63-8.428,24.69-15.488    c12.273-12.273,19.032-28.591,19.032-45.948s-6.759-33.675-19.032-45.949C182.485,141.974,166.167,135.215,148.81,135.215z     M296.834,556.943c-14.65,0-26.569-11.919-26.569-26.568c0-5.44,1.639-10.674,4.738-15.137    c4.972-7.158,13.133-11.432,21.831-11.432c8.696,0,16.858,4.273,21.831,11.432c3.1,4.462,4.738,9.696,4.738,15.137    C323.403,545.024,311.484,556.943,296.834,556.943z M296.834,504.807c-8.37,0-16.224,4.113-21.009,11.002    c-2.983,4.294-4.56,9.331-4.56,14.566c0,14.099,11.47,25.568,25.569,25.568s25.569-11.47,25.569-25.568    c0-5.235-1.576-10.272-4.559-14.566C313.058,508.92,305.203,504.807,296.834,504.807z M148.811,223.336    c-9.892,0-18.69-6.288-21.893-15.646c-0.828-2.419-1.248-4.94-1.248-7.494c0-12.76,10.381-23.141,23.141-23.141    c12.76,0,23.141,10.381,23.141,23.141c0,2.555-0.42,5.077-1.248,7.494C167.501,217.049,158.703,223.336,148.811,223.336z     M148.811,178.055c-12.208,0-22.141,9.933-22.141,22.141c0,2.443,0.402,4.856,1.194,7.17c3.064,8.954,11.482,14.97,20.947,14.97    c9.465,0,17.883-6.016,20.947-14.97c0.792-2.313,1.194-4.725,1.194-7.17C170.952,187.988,161.019,178.055,148.811,178.055z     M470.556,160.888h-28.537c-1.963,0-3.561-1.597-3.561-3.56V128.79c0-1.963,1.598-3.56,3.561-3.56h28.537    c1.963,0,3.561,1.597,3.561,3.56v28.538C474.116,159.291,472.519,160.888,470.556,160.888z M442.019,126.229    c-1.412,0-2.561,1.148-2.561,2.56v28.538c0,1.412,1.148,2.56,2.561,2.56h28.537c1.412,0,2.561-1.148,2.561-2.56V128.79    c0-1.412-1.148-2.56-2.561-2.56H442.019z M319.144,85.006h-48.05c-3.738,0-6.949-2.146-8.379-5.599    c-1.431-3.454-0.677-7.242,1.966-9.886l24.025-24.025c1.712-1.713,3.99-2.657,6.414-2.657c2.424,0,4.702,0.943,6.413,2.657    l24.025,24.025c2.644,2.644,3.396,6.431,1.966,9.885C326.093,82.861,322.882,85.006,319.144,85.006z M295.119,43.84    c-2.156,0-4.183,0.839-5.707,2.364l-24.025,24.025c-2.352,2.352-3.022,5.723-1.75,8.796c1.273,3.073,4.13,4.981,7.456,4.981h48.05    c3.326,0,6.183-1.909,7.456-4.982c1.272-3.073,0.603-6.443-1.749-8.795l-24.025-24.025C299.302,44.68,297.276,43.84,295.119,43.84    z" fill="#098b94"/>
	</g>
</g>
<g>
</g>
<g>
</g>
<g>
</g>
<g>
</g>
<g>
</g>
<g>
</g>
<g>
</g>
<g>
</g>
<g>
</g>
<g>
</g>
<g>
</g>
<g>
</g>
<g>
</g>
<g>
</g>
<g>
</g>
</svg>
